<svg width="27.1" height="26" xmlns="http://www.w3.org/2000/svg" viewBox="0 0 27.1 26" class="site-name__logo-crest d-none">
  <polygon class="cls-1" points="22.53 4.77 23.19 4.93 23.19 4.11 22.36 4.11 22.53 4.77"></polygon>
  <path class="cls-1" d="M23.59,5.72v.88c.21-.28.35-.62.39-.98l-.39.1Z"></path>
  <path class="cls-1" d="M23.59,4.15v.88l.39.1c-.04-.36-.18-.7-.39-.98Z"></path>
  <polygon class="cls-1" points="21.47 4.11 20.64 4.11 20.64 4.93 21.3 4.77 21.47 4.11"></polygon>
  <path class="cls-1" d="M20.24,4.15c-.21.28-.35.62-.39.98l.39-.1v-.88Z"></path>
  <path class="cls-1" d="M21.66,5.77l.25.99.25-.99c.02-.07.07-.13.14-.15l.99-.25-.99-.25c-.07-.02-.13-.07-.15-.15l-.25-.99-.25.99c-.02.07-.07.13-.15.15l-.99.25.99.25c.07.02.13.07.15.15Z"></path>
  <path class="cls-1" d="M21.67,3.32c-.37.04-.7.18-.99.39h.89l.1-.39Z"></path>
  <polygon class="cls-1" points="22.36 6.64 23.19 6.64 23.19 5.82 22.53 5.99 22.36 6.64"></polygon>
  <path class="cls-1" d="M25.48,1.94l.08.15.12-.12s.07-.05.11-.06l.17-.03-.08-.15s-.03-.08-.02-.12l.02-.17-.17.03s-.08,0-.12-.02l-.16-.07-.03.17s-.02.08-.05.11l-.12.12.15.08s.07.05.09.08Z"></path>
  <path class="cls-1" d="M24.3,7.75c-.41.41-.47,1.21-.47,1.56.89-.43,1.61-1.14,2.04-2.03-.35,0-1.16.07-1.57.47Z"></path>
  <path class="cls-1" d="M26.07,8.65l-.17-.02s-.08-.02-.11-.05l-.13-.11-.07.16s-.05.07-.08.09l-.15.09.13.12s.05.06.06.1l.04.17.15-.08s.08-.03.12-.02l.17.02-.03-.17s0-.08.01-.12l.07-.16Z"></path>
  <path class="cls-1" d="M26.06,6.81c.16-.46.24-.94.24-1.43s-.08-.97-.24-1.43c-.25.27-.77.9-.77,1.43,0,.48.45,1.09.77,1.43Z"></path>
  <path class="cls-1" d="M25.87,3.48c-.43-.89-1.15-1.6-2.04-2.03,0,.33.08,1.07.52,1.51.45.44,1.19.51,1.52.52Z"></path>
  <path class="cls-1" d="M22.16,7.44c.37-.04.7-.18.99-.39h-.89l-.1.39Z"></path>
  <path class="cls-1" d="M20.69,7.05c.28.21.62.35.99.39l-.1-.39h-.89Z"></path>
  <path class="cls-1" d="M21.92,2.02c.66,0,1.23-.53,1.45-.76-.94-.33-1.97-.33-2.91,0,.22.24.79.76,1.45.76Z"></path>
  <polygon class="cls-1" points="21.3 5.99 20.64 5.82 20.64 6.64 21.47 6.64 21.3 5.99"></polygon>
  <path class="cls-1" d="M20.24,6.6v-.88l-.39-.1c.04.36.18.7.39.98Z"></path>
  <path class="cls-1" d="M23.15,3.71c-.28-.21-.62-.35-.99-.39l.1.39h.89Z"></path>
  <path class="cls-1" d="M8.45,8.85s-.09,0-.17.06c-.06.05-.1.09-.12.15-.01.14.04.29.06.35,1.18,2.05,1.67,2.81,3.1,4.58.72.89,1.77,1.83,2.22,2.23l.02.02c.25-.21.47-.4.62-.54l-.18-.18c-.53-.54-1.49-1.52-2.01-2.12-1.13-1.3-2.29-2.84-3.27-4.34-.04-.06-.16-.19-.27-.21Z"></path>
  <path class="cls-1" d="M1.9,2.46c-.2-.01-.37.03-.49.12-.19.14-.22.38-.22.38,0,.06-.04.12-.1.15-.05.03-.12.04-.18.01-.32-.13-.69.18-.89.38.14.08.33.19.45.23.06.02.12.06.18.11l1.4-1.11-.16-.27Z"></path>
  <path class="cls-1" d="M11.3,7.93s.61-.26,1.37-.2c-.08-.23-.17-.44-.26-.64-.13,0-.26.02-.39.04-1.4.3-1.84,1.45-1.94,1.84.27.16,1,.56,1.58.65.62.09,1.23.1,1.59.02-.14-.54-.28-1.04-.43-1.49-.74-.11-1.36.15-1.36.15-.1.04-.22,0-.26-.11-.04-.1,0-.22.11-.26Z"></path>
  <path class="cls-1" d="M2.02,5.97c.29.76.68,1.8,1.41,2.51.33.32.9.56,1.71.71,1.01.18,2.12.17,2.61.16-.05-.21-.02-.47.19-.68.05-.06.12-.11.19-.15h.03c.06-.04.12-.06.19-.07.14-.02.28,0,.4.06.07-.45.17-.91.29-1.4.34-1.38-.23-2.84-.94-3.68-.34-.4-.82-.82-1.24-1.2-.39-.34-.75-.67-.97-.93-.11-.13-.21-.29-.32-.47l-.92.66c.07.22.42,1.09,1.57,2.36,1.44,1.59,1.47,3.17,1.47,3.24,0,.11-.09.2-.2.2-.11,0-.2-.09-.2-.2,0-.01-.04-1.51-1.36-2.97-1.06-1.17-1.47-2.01-1.61-2.38l-.53.38s-.08.04-.12.04h-.04c-.05-.01-.1-.04-.13-.09l-.3-.45-.79-.17-.17.78.26.44c.05.09.03.2-.05.26l-.27.21c.16.32,1.05,2.06,1.97,3.06.99,1.08,2.03,1.39,2.04,1.39.11.03.17.14.14.25-.02.09-.1.15-.19.15h-.06s-1.15-.34-2.23-1.52c-.9-.98-1.74-2.58-1.99-3.08l-.94.74c.07.09.15.2.23.31.13.19.27.38.41.54.16.19.29.53.46.98Z"></path>
  <path class="cls-1" d="M5.8,14.59c1.59,1.03,4.92,2.48,6.32,2.76.26-.18.53-.38.8-.6-1.23-.26-3.72-.98-6.35-2.25-1.52-.73-2.83-1.61-3.9-2.62-.69-.61-.99-1-1.11-1.18l-.05-.05s-.04-.05-.07-.08c.06.29.17.7.33,1.16.16.4.42,1.02.79,1.64.24.38.52.76.83,1.12.21.23.53.57.87.89.15.14.3.26.44.37l.09.07c1.23.04,3.41.39,4.77,2.18.13.17.23.36.32.59.51-.18,1.1-.5,1.77-.94-1.6-.43-4.61-1.77-6.09-2.73-.09-.06-.12-.19-.06-.28.06-.09.19-.12.28-.06Z"></path>
  <path class="cls-1" d="M10.74,19.95c.62-.32,1.35-.71,2.08-1.17.99-.63,1.7-1.22,2.18-1.82l-.4-1.08c-.22.2-.59.53-1.06.91h-.02c-.28.24-.57.46-.84.67l-.13.1-.43.3c-.41.29-.68.47-.79.56-.13.1-.41.23-.88.4-.14.06-.28.12-.42.17.12.47.16.93.16,1.25.17-.1.35-.19.55-.28Z"></path>
  <path class="cls-1" d="M17.85,18.55c-.71-.81-1.18-2.87-1.61-4.94h-.02v-.12c-.06-.28-.12-.59-.18-.89v-.06c-.31-1.51-.6-2.94-.92-3.91-.32-.95-1.14-2.11-2.43-3.43-.01-.01-.03-.02-.04-.04-.73-.74-1.61-1.54-2.62-2.38-.13-.11-.22-.18-.27-.22-.28-.25-.46-.25-.5-.21-.02.02-.02.07.03.12.16.17.34.34.54.53.85.83,1.91,1.85,2.74,3.49.68,1.33,1.29,3.58,1.68,6.17.2,1.34.44,2.26.61,2.8l.54,1.46c.02.07.01.14-.03.19-.43.56-1.04,1.11-1.85,1.67,1.37.08,2.15-.09,2.24-.11.02,0,.03,0,.05,0,.05,0,.11.02.14.06.08.08,1.94,1.95,3.98,3.44,1.82,1.33,4,2.46,4.45,2.69.39-.27,1.1-1.04,1.69-1.72-.59-.25-2.11-.89-3.32-1.4-1.57-.66-3.98-2.13-4.92-3.19Z"></path>
  <path class="cls-1" d="M23.73,14.23c-1.26.22-1.78.6-1.78.6-.03.02-.06.03-.09.04l-1.78.28h0s-.04,0-.04,0h-.01s-.04-.01-.06-.02c-.03-.02-.05-.04-.07-.05h0s-.02-.06-.02-.06c0,0,0,0,0-.02v-.02s0-.03,0-.03c0-.01,0-.03,0-.04v-.03s.02-.02.03-.04l.02-.02s0,0,.02-.02l.03-.02s.66-.38,1.34-1.77c.02-.05.07-.08.12-.1.05-.02.11-.01.15,0,.05.02.08.06.1.11s.01.11,0,.15c-.31.64-.62,1.08-.88,1.38.2-.07.35-.14.44-.21.25-.2.85-.76,1.01-1.54.1-.46.02-.87-.05-1.11-.23.15-.63.37-1.03.51-.66.23-1.43.64-1.65,1.14-.25.57.03,1.54.03,1.55.02.05,0,.11-.02.16-.03.05-.07.08-.13.09-.12.03-1.15.27-1.63.55l-.25.14c-.15.08-.21.12-.32.19.06.21.11.4.17.57,0,0,0,0,0,0l.09-.06c.55-.39,1.33-.74,1.42-.78.03-.01.06-.02.08-.02.04,0,.08.01.11.03.06.04.09.1.09.17,0,.01.02,1.32,1.16,2.37.62.57,1.74.89,2.15.99.07-.3.17-.95-.13-1.52-.37-.7-1.12-1.38-1.58-1.57-.12-.05-.46-.17-.76-.27.17.41.59,1.15,1.62,2.05.08.07.09.2.02.28-.07.08-.2.09-.29.02-1.71-1.48-1.86-2.6-1.87-2.65h0s0-.01,0-.01h0s0-.06,0-.06c0-.03.02-.05.04-.08l.02-.02s.02-.02.05-.03h0s.03-.01.03-.01l2.03-.43c.07-.02.72-.18,1.51-.14l1.01.05c.05,0,.1.03.14.07.04.04.05.09.05.15,0,.05-.03.1-.07.14-.04.04-.09.05-.15.05l-1.01-.05c-.45-.02-.86.03-1.12.07.31.41,1.1,1.22,2.61,1.36,1.66.15,2.26-.74,2.41-1.05-1-1.18-2.43-1.55-3.34-1.4Z"></path>
  <path class="cls-1" d="M13.22,19.75c-1.05.08-1.87.37-2.38.6l-.04.02c1.59.01,2.65.42,2.7.43.05.02.09.06.11.11.02.05.02.1,0,.15-.04.1-.16.15-.26.11-.01,0-1.38-.53-3.32-.38h-.02s-.04,0-.04,0c-.02,0-.03,0-.05-.01l-.06-.03s-.03-.03-.04-.05l-.02-.03s0,0,0-.01c0-.01-.01-.02-.01-.03h0,0c-.02-.05-.01-.1,0-.15.01-.31.02-1.53-.52-2.24-1.63-2.15-4.5-2.07-5.32-2,.06.44.26,1.55,1.03,2.82.41.68,1.33,1.24,1.34,1.25l.02.02s.26.16.95.36c.11.03.17.14.13.25-.03.1-.14.17-.25.13-.55-.17-.83-.29-.97-.37-1.93.89-3.76,1.7-4.86,2.15.15.21.42.56.66.83.27.3.63.63.79.77,1.25-.35,6.25-3.47,6.31-3.5.03-.02.07-.03.11-.03.05,0,.1.02.13.05.07.06.09.16.05.24,0,.02-.84,1.77.18,3.17.85,1.17,2.35,1.52,2.85,1.61.05-.39.11-1.34-.31-2.46-.28-.75-.85-1.29-1.32-1.64.31.59.72,1.55.99,3.01.02.11-.05.21-.16.24h-.04c-.1,0-.18-.07-.2-.16-.49-2.56-1.39-3.57-1.4-3.58l-.04-.07s0-.03,0-.04v-.03s0-.03,0-.04v-.04s.03-.03.04-.04l.02-.02s.03-.03.05-.04h.02s.05-.02.07-.02h.04s.02,0,.03.02c.02,0,.11.05.25.12.64.31,2.28,1.04,3.66,1.05,1.37.01,2.42-.2,2.87-.31-.4-.61-1.72-2.35-3.76-2.2Z"></path>
  <path class="cls-1" d="M20.01,1.45c-.9.43-1.61,1.14-2.05,2.03.34,0,1.15-.05,1.57-.47.43-.42.47-1.22.48-1.56Z"></path>
  <path class="cls-1" d="M16.9,13.14c-.09.13-.18.25-.26.37.11.52.2.94.28,1.32,1.12-1.27,2.33-3.22,3.14-5.07-.27-.11-.53-.25-.78-.41-.89,1.64-1.71,2.81-2.37,3.76l-.02.02Z"></path>
  <path class="cls-1" d="M19.53,7.75c-.36-.36-1.09-.46-1.57-.47.43.89,1.15,1.6,2.04,2.03,0-.35-.07-1.16-.47-1.56Z"></path>
  <path class="cls-1" d="M18.27,1.9l.12.12.08-.15s.05-.06.09-.08l.15-.07-.12-.13s-.05-.07-.05-.11l-.02-.17-.16.07s-.08.02-.12.02l-.17-.03.02.17s0,.08-.02.12l-.08.15.17.03s.08.03.11.06Z"></path>
  <path class="cls-1" d="M20.47,9.5c.93.32,1.96.32,2.89,0-.25-.24-.86-.77-1.44-.77s-1.2.53-1.45.77Z"></path>
  <path class="cls-1" d="M15.11,7.63c.21.02.72.12,1.35.58.04.03.07.08.08.13,0,.05,0,.11-.04.15-.06.09-.19.11-.28.04-.35-.25-.66-.38-.88-.44.06.14.12.28.16.42.06.19.13.4.2.65.06.02.11.04.16.06.18.07.32.13.54.15.58.05,1-.07,1.19-.14-.09-.37-.42-1.37-1.51-1.68-.55-.16-.93-.21-1.16-.23.06.11.13.21.18.31Z"></path>
  <path class="cls-1" d="M13.36,5.32c0-.17,0-.36.02-.56.07-.81.32-1.4.33-1.43.02-.05.06-.09.11-.11.05-.02.11-.02.15,0,.1.04.15.16.11.26,0,0-.23.56-.3,1.3-.04.45,0,.93,0,.99h0c.31.36.59.71.82,1.04.23-.3.71-1.05.83-2.19.11-1.09-.73-2.74-1.04-3.29-.33.29-1.03.96-1.24,1.68-.26.88-.22,1.48-.15,1.91.12.13.24.25.36.38Z"></path>
  <path class="cls-1" d="M5.38.46c-.09-.18-.15-.34-.2-.46-.41.15-.71.58-.71.58-.03.05-.09.08-.15.08-.4.03-.68.55-.77.75l.17.25,1.67-1.2Z"></path>
  <path class="cls-1" d="M18.54,5.38c0-.65-.53-1.22-.77-1.44-.16.46-.25.95-.25,1.44s.08.98.25,1.44c.24-.22.77-.8.77-1.44Z"></path>
  <path class="cls-1" d="M18.28,3.87c.31.34.67.88.67,1.51s-.37,1.17-.67,1.51c.48.04,1.14.17,1.54.58.41.41.54,1.08.58,1.56.36-.31.93-.69,1.52-.69s1.15.38,1.52.69c.04-.48.17-1.14.58-1.55.42-.42,1.1-.55,1.58-.58-.32-.38-.71-.95-.71-1.51s.39-1.13.71-1.51c-.45-.04-1.09-.18-1.53-.62-.43-.43-.58-1.05-.62-1.49-.34.31-.88.67-1.52.67s-1.17-.36-1.51-.66c-.04.47-.16,1.11-.58,1.53-.42.42-1.07.55-1.54.58ZM21.92,2.9c1.37,0,2.49,1.11,2.49,2.48s-1.12,2.48-2.49,2.48-2.49-1.11-2.49-2.48,1.12-2.48,2.49-2.48Z"></path>
</svg>